<svg width="39" height="30" viewBox="0 0 39 30" fill="none" xmlns="http://www.w3.org/2000/svg">
<g clip-path="url(#clip0)">
<path d="M37.1311 22.6563C37.1311 19.7516 37.1311 11.0376 37.1311 11.0376C37.1311 11.0376 37.1311 10.5051 36.7922 10.6503C36.5502 10.7956 35.8724 11.1345 35.6788 11.3281C35.4367 11.5702 35.4851 12.0543 35.4851 12.0543C35.4851 12.0543 35.4851 19.9453 35.4851 22.6079C35.4851 22.7531 35.3399 22.85 35.2915 22.85C34.7105 23.1888 34.3232 23.8182 34.3232 24.5928C34.3232 25.7062 35.2431 26.5776 36.3081 26.5776C37.4216 26.5776 38.293 25.6578 38.293 24.5928C38.293 23.8666 37.9057 23.1888 37.2763 22.85C37.2763 22.8984 37.1311 22.85 37.1311 22.6563Z" fill="#F1EBFE"/>
<path d="M21.688 19.3645C21.0102 19.8002 20.1388 19.9938 19.2674 19.9938C18.396 19.9938 17.5246 19.7518 16.8469 19.3645L5.80912 12.6353C5.80912 12.6353 4.79248 12.006 4.79248 13.4099C4.79248 14.959 4.79248 22.1239 4.79248 22.1239C4.79248 22.1723 4.79248 22.5112 4.79248 22.608C4.79248 26.142 11.2796 30.0149 19.219 30.0149C27.1584 30.0149 33.6455 26.1904 33.6455 22.608C33.6455 22.5112 33.6455 22.1723 33.6455 22.1239C33.6455 22.1239 33.6455 14.717 33.6455 13.071C33.6455 11.9575 32.9194 12.4901 32.9194 12.4901L21.688 19.3645Z" fill="#F1EBFE"/>
<path d="M37.8573 10.844C38.7287 10.3115 38.7287 9.44008 37.8573 8.90755L20.8166 0.387185C19.9452 -0.145338 18.5413 -0.145338 17.6699 0.387185L0.629137 8.90755C-0.242264 9.44008 -0.242264 10.3115 0.629137 10.844L17.6699 21.3008C18.5413 21.8333 19.9452 21.8333 20.8166 21.3008" fill="#E3D7FD"/>
</g>
<defs>
<clipPath id="clip0">
<rect width="38.4869" height="29.9665" fill="white"/>
</clipPath>
</defs>
</svg>
