<svg width="24" height="30" viewBox="0 0 24 30" fill="none" xmlns="http://www.w3.org/2000/svg">
<g clip-path="url(#clip0)">
<path d="M11.8396 22.2075C11.7058 22.241 11.5386 22.2744 11.4048 22.2744C11.572 22.2744 11.7058 22.241 11.8396 22.2075Z" fill="#231F20"/>
<path d="M16.6889 23.144V29.2309C16.6221 30.0336 15.7859 30.067 15.4849 29.7326L11.6053 26.7894L7.72574 29.766C7.45819 30.0336 6.62207 30.1005 6.55518 29.2643V23.1774V18.6958H16.7224V23.144H16.6889Z" fill="#F1EBFE"/>
<path d="M22.8763 12.8429C23.3445 13.9466 23.3445 15.1841 22.8763 16.2877C22.4081 17.3914 21.5385 18.261 20.4348 18.7292C19.6656 19.0636 19.0302 19.6657 18.7292 20.4349C18.194 21.6054 17.4917 22.0402 17.0569 22.475C16.8563 22.6088 16.6221 22.7426 16.388 22.8429C16.2542 22.8764 16.1205 22.9432 15.9867 22.9767C14.9499 23.3111 13.8128 23.2777 12.8429 22.8764C12.3747 22.6757 11.7392 22.6088 11.1706 22.6757C11.1706 22.6757 11.1038 22.6757 11.0703 22.6757C10.7359 22.7091 9.49841 23.3111 8.12717 23.1439C8.12717 23.1439 8.12717 23.1439 8.09373 23.1439C7.9265 23.1105 7.05694 22.8764 6.9566 22.8429C6.55526 22.6757 6.22082 22.475 5.88637 22.2075C5.85292 22.174 5.85292 22.174 5.81948 22.1406C5.65226 22.0068 5.51848 21.873 5.3847 21.7392C4.91647 21.2041 4.61547 20.5018 4.54858 20.4349C4.14724 19.4984 3.54523 18.9633 2.80945 18.6623C2.10711 18.3947 1.5051 17.96 1.03688 17.3914C-0.167136 15.6188 -0.0668012 14.2142 0.100423 13.5787L0.133867 13.5453C0.167312 13.4449 0.200757 13.3111 0.234202 13.2108C0.267647 13.077 0.334536 12.9433 0.367981 12.8095C0.702429 12.0402 0.702429 11.1707 0.367981 10.368C-0.100246 9.26433 -0.100246 8.02687 0.367981 6.92319C0.836208 5.81951 1.70577 4.94995 2.80945 4.48172C3.57868 4.14727 4.21413 3.54527 4.54858 2.77604C5.51848 0.468348 8.16061 -0.601885 10.4683 0.334569C11.2375 0.669016 12.1071 0.669016 12.9098 0.334569C14.0134 -0.133658 15.2509 -0.133658 16.3546 0.334569C17.4583 0.802796 18.3278 1.67236 18.7961 2.77604C19.1305 3.54527 19.7325 4.18072 20.5017 4.51517C22.8094 5.48506 23.8797 8.1272 22.9098 10.4014C22.5753 11.2041 22.5753 12.0737 22.8763 12.8429Z" fill="#E3D7FD"/>
<path d="M9.53185 9.23078L10.8696 6.5552C11.1706 5.91975 12.0737 5.91975 12.4081 6.5552L13.7124 9.23078L16.6556 9.66557C17.3579 9.7659 17.6255 10.6355 17.1238 11.1037L14.9833 13.1773L15.485 16.1204C15.6188 16.8227 14.883 17.3579 14.2476 17.0234L11.6054 15.6187L8.96329 16.99C8.32784 17.3244 7.6255 16.7893 7.72583 16.087L8.2275 13.1438L6.08704 11.0702C5.58536 10.5686 5.85292 9.73245 6.55526 9.63212L9.53185 9.23078Z" fill="#F1EBFE"/>
</g>
<defs>
<clipPath id="clip0">
<rect width="23.2441" height="29.9665" fill="white"/>
</clipPath>
</defs>
</svg>
