<svg width="31" height="30" viewBox="0 0 31 30" fill="none" xmlns="http://www.w3.org/2000/svg">
<g clip-path="url(#clip0)">
<path d="M17.2559 8.859C16.9863 8.859 16.7167 8.82048 16.447 8.78196C16.0619 8.70493 15.6767 8.58938 15.33 8.39679C14.7523 8.66641 14.0975 8.82048 13.4042 8.82048C13.1345 8.82048 12.8649 8.78196 12.5953 8.74345C10.9005 8.43531 9.47538 7.12572 9.09021 5.43095C8.70503 3.81322 9.24428 2.15697 10.4383 1.07849L10.7079 0.8859C11.4013 0.385174 12.2101 0.0770348 13.0575 0C13.1731 0 13.2886 0 13.4042 0H17.2559C17.2944 0 17.3329 0 17.3714 0C18.2188 0 19.0277 0.269622 19.721 0.770348L19.7595 0.808865L20.2988 1.27107L20.3758 1.34811C21.2232 2.19549 21.6854 3.27398 21.6854 4.46802C21.6854 5.66206 21.2232 6.77906 20.3758 7.58792C19.5669 8.39679 18.4499 8.859 17.2559 8.859ZM15.5996 5.81612C15.7922 5.93168 16.0233 6.00871 16.2159 6.04723C16.3315 6.08575 16.447 6.08575 16.6011 6.08575C17.6796 6.08575 18.5655 5.27688 18.5655 4.27543C18.5655 3.81322 18.3729 3.35101 17.9877 3.00436L17.6796 2.77325C17.3714 2.58066 16.9863 2.46511 16.6396 2.46511H14.0204C13.9819 2.46511 13.9434 2.46511 13.8664 2.46511C13.4812 2.50363 13.1345 2.61918 12.8264 2.85029L12.7108 2.92732C12.2101 3.35101 11.979 4.04432 12.1331 4.69912C12.2872 5.39243 12.9419 5.93168 13.6738 6.04723C13.7893 6.08575 13.9049 6.08575 14.0204 6.08575C14.3671 6.08575 14.7137 6.00871 15.0219 5.81612L15.2915 5.66205L15.5996 5.81612Z" fill="#E3D7FD"/>
<path d="M30.1204 15.0989L30.0819 15.5611L29.196 24.9978L28.9649 26.5L28.9264 26.8082C28.6182 28.5414 27.1546 29.851 25.3828 29.9666H5.73891C5.43077 29.9666 5.12263 29.9666 4.77597 29.9281C3.31231 29.6584 2.07976 28.5029 1.7331 27.0393C1.7331 26.9622 1.69458 26.8852 1.69458 26.8082L1.65607 26.5771L1.19386 23.4957L0.57758 15.5611L0.539062 15.0989L15.0216 15.2529L30.1204 15.0989Z" fill="#F1EBFE"/>
<path d="M30.6598 8.01167V9.20571L30.1206 15.0989L30.0821 15.5611C27.0392 18.0647 23.1104 19.798 18.758 20.3758C18.758 20.3758 18.835 17.9877 16.4469 17.9877H14.2129C12.9418 17.9877 11.9019 19.0276 11.9019 20.2987V20.3758C7.54941 19.7595 3.62063 18.0647 0.577761 15.5611L0.539243 15.0989L0 8.85906V7.97316H0.0385174C0.15407 6.9717 0.616278 6.0858 1.30959 5.46953L1.5407 5.31546C2.15697 4.81473 2.96584 4.54511 3.7747 4.50659C3.81322 4.50659 3.81322 4.50659 3.85174 4.50659H3.89026C3.92877 4.50659 3.92877 4.50659 3.96729 4.50659H26.9236C27.0392 4.50659 27.1548 4.50659 27.2703 4.54511C27.8866 4.62214 28.4643 4.85325 28.9651 5.16139L29.2732 5.43101L29.5043 5.6236L29.5428 5.66211C30.1591 6.27839 30.5443 7.08726 30.6598 8.01167Z" fill="#E3D7FD"/>
<path d="M16.4471 24.1888H14.2131C13.5583 24.1888 13.0576 23.6881 13.0576 23.0333V20.2986C13.0576 19.6438 13.5583 19.1431 14.2131 19.1431H16.4471C17.1019 19.1431 17.6027 19.6438 17.6027 20.2986V23.0333C17.6027 23.6881 17.1019 24.1888 16.4471 24.1888Z" fill="#E3D7FD"/>
</g>
<defs>
<clipPath id="clip0">
<rect width="30.6598" height="29.9665" fill="white"/>
</clipPath>
</defs>
</svg>
