<svg width="47" height="52" viewBox="0 0 47 52" fill="none" xmlns="http://www.w3.org/2000/svg">
<path d="M24.7656 5.10717C24.7656 6.03574 24.0111 6.79021 23.0826 6.79021C22.154 6.79021 21.3995 6.03574 21.3995 5.10717C21.3995 4.1786 22.154 3.42413 23.0826 3.42413C24.0111 3.3661 24.7656 4.1786 24.7656 5.10717Z" fill="#F1EBFE"/>
<path d="M44.4977 35.2857L44.0915 34.9375L43.6272 34.5312C43.0468 34.125 42.4084 33.8348 41.712 33.6607V25.4196C41.712 16.7143 35.6763 9.40179 27.6093 7.37054C27.9575 6.67411 28.1897 5.91964 28.1897 5.10714C28.1897 2.32143 25.9263 0 23.0825 0C20.2968 0 17.9754 2.26339 17.9754 5.10714C17.9754 5.91964 18.2075 6.67411 18.5558 7.37054C10.4308 9.40179 4.45308 16.7143 4.45308 25.4196V33.7768C3.64058 33.9509 2.88612 34.2991 2.30576 34.8214L1.95755 35.1116C0.448621 36.4464 -0.363879 38.5938 0.158442 40.7991C0.680763 43.0045 2.53791 44.7455 4.74326 45.1518C5.14951 45.2098 5.6138 45.2679 6.02005 45.2098C6.07808 45.2098 6.13612 45.2098 6.19416 45.2098H40.029C40.087 45.2098 40.1451 45.2098 40.2031 45.2098C43.5111 45.3259 46.1808 42.7143 46.1808 39.4062C46.2388 37.7812 45.5424 36.3304 44.4977 35.2857ZM21.3995 5.10714C21.3995 4.17857 22.154 3.42411 23.0825 3.42411C24.0111 3.42411 24.7656 4.17857 24.7656 5.10714C24.7656 6.03571 24.0111 6.79018 23.0825 6.79018C22.154 6.79018 21.3995 6.03571 21.3995 5.10714Z" fill="#E1DEE9"/>
<path d="M31.3817 45.2098C30.5692 49.0982 27.2031 52 23.0826 52C18.962 52 15.5379 49.0982 14.7834 45.2098H31.3817Z" fill="#F1EBFE"/>
</svg>
