<svg width="23" height="25" viewBox="0 0 23 25" fill="none" xmlns="http://www.w3.org/2000/svg">
<path d="M13.8712 17.7883V25H8.1084V22.2992C8.1084 22.2417 8.1084 22.1843 8.1084 22.1268V17.7883C8.1084 17.7308 8.1084 17.6734 8.1084 17.6159C8.1084 17.5584 8.1084 17.5297 8.1084 17.4722C8.1084 17.4435 8.1084 17.386 8.1084 17.3573C8.13721 17.1275 8.22365 16.8976 8.3101 16.6677C8.33891 16.5816 8.39654 16.4954 8.42535 16.4092C8.91519 15.5185 9.86605 14.9151 10.9322 14.9151C12.0271 14.9151 12.9492 15.5185 13.439 16.4092C13.7559 16.8114 13.8712 17.2998 13.8712 17.7883Z" fill="#E3D7FD"/>
<path d="M22.0352 9.67113V14.6321V22.2408C22.0352 23.7737 20.8141 25 19.2878 25H13.7651V18.0045C13.7651 17.5307 13.6263 17.0569 13.4321 16.6667C12.9603 15.8027 12.0444 15.2174 11.0176 15.2174C9.96303 15.2174 9.07496 15.8027 8.60317 16.6667C8.54767 16.7503 8.51992 16.8339 8.49216 16.9175C8.40891 17.1126 8.32565 17.3356 8.2979 17.5864C8.2979 17.6143 8.2979 17.67 8.2979 17.6979C8.2979 17.7536 8.2979 17.7815 8.2979 17.8372C8.2979 17.893 8.2979 17.9487 8.2979 18.0045V22.2129C8.2979 22.2687 8.2979 22.3244 8.2979 22.3802V25H2.74747C1.2211 25 0 23.7737 0 22.2408V9.81048C0 8.94649 0.38853 8.13824 1.05458 7.58083L9.15822 0.724638L9.32473 0.585284C9.79652 0.222965 10.3793 0 10.9899 0C11.5727 0 12.0999 0.167224 12.544 0.473802L12.766 0.668896L12.9325 0.80825L21.1194 7.66444C21.7022 8.16611 22.0352 8.89075 22.0352 9.67113Z" fill="#AE6CF8"/>
</svg>
