<svg width="46" height="53" viewBox="0 0 46 53" fill="none" xmlns="http://www.w3.org/2000/svg">
<path d="M28.8844 37.041V52.058H16.8844V46.4341C16.8844 46.3145 16.8844 46.1948 16.8844 46.0751V37.041C16.8844 36.9213 16.8844 36.8016 16.8844 36.682C16.8844 36.5623 16.8844 36.5025 16.8844 36.3828C16.8844 36.323 16.8844 36.2033 16.8844 36.1435C16.9444 35.6649 17.1244 35.1862 17.3044 34.7076C17.3644 34.5281 17.4844 34.3486 17.5444 34.1692C18.5644 32.3145 20.5444 31.058 22.7644 31.058C25.0444 31.058 26.9644 32.3145 27.9844 34.1692C28.6444 35.0068 28.8844 36.0239 28.8844 37.041Z" fill="#F1EBFE"/>
<path d="M45.8844 20.1384V30.4688V46.3125C45.8844 49.5045 43.3417 52.058 40.1633 52.058H28.6633V37.4911C28.6633 36.5045 28.3744 35.5179 27.9699 34.7054C26.9874 32.9063 25.0804 31.6875 22.9422 31.6875C20.7462 31.6875 18.897 32.9063 17.9146 34.7054C17.799 34.8795 17.7412 35.0536 17.6834 35.2277C17.5101 35.6339 17.3367 36.0982 17.2789 36.6205C17.2789 36.6786 17.2789 36.7946 17.2789 36.8527C17.2789 36.9688 17.2789 37.0268 17.2789 37.1429C17.2789 37.2589 17.2789 37.375 17.2789 37.4911V46.2545C17.2789 46.3705 17.2789 46.4866 17.2789 46.6027V52.058H5.72111C2.54271 52.058 0 49.5045 0 46.3125V20.4286C0 18.6295 0.809045 16.9464 2.19598 15.7857L19.0704 1.50893L19.4171 1.21875C20.3995 0.464286 21.6131 0 22.8844 0C24.098 0 25.196 0.348214 26.1206 0.986607L26.5829 1.39286L26.9296 1.68304L43.9774 15.9598C45.191 17.0045 45.8844 18.5134 45.8844 20.1384Z" fill="#E1DEE9"/>
</svg>
