<svg width="23" height="25" viewBox="0 0 23 25" fill="none" xmlns="http://www.w3.org/2000/svg">
<path d="M22.1445 11.0302C22.1445 16.0974 18.757 20.3527 14.1377 21.6965C13.9138 21.7525 13.7178 21.8085 13.4938 21.8645V23.7962C13.4938 24.2721 13.2139 24.72 12.766 24.916C12.626 24.972 12.458 25 12.318 25C12.0101 25 11.7021 24.888 11.4782 24.6361L8.7346 21.8925C8.53863 21.8645 8.37066 21.8085 8.17469 21.7525C5.51512 21.0246 3.24748 19.3729 1.79171 17.1333C1.76372 17.1053 1.73572 17.0773 1.73572 17.0213C1.70773 16.9653 1.67973 16.9093 1.62374 16.8533C1.59574 16.7973 1.53975 16.7413 1.51176 16.6573C1.48376 16.6013 1.45577 16.5733 1.42777 16.5174C1.34378 16.4894 1.31579 16.4614 1.31579 16.4054C1.28779 16.3494 1.2598 16.3214 1.2318 16.2654C1.20381 16.2374 1.20381 16.2094 1.17581 16.1814C1.14782 16.1534 1.14782 16.1254 1.11982 16.0974C1.09183 16.0134 1.03583 15.9295 1.00784 15.8455C1.00784 15.8455 1.00784 15.8175 0.979843 15.8175C0.923852 15.7335 0.895857 15.6495 0.867861 15.5655C0.867861 15.5375 0.839866 15.5095 0.839866 15.4815C0.81187 15.4535 0.81187 15.3975 0.783875 15.3695C0.755879 15.3135 0.755879 15.2576 0.727884 15.2296C0.699888 15.1736 0.671893 15.1176 0.671893 15.0616C0.643897 15.0056 0.615901 14.9496 0.615901 14.8936C0.587906 14.8096 0.55991 14.7536 0.531915 14.6697C0.503919 14.6137 0.503919 14.5577 0.475924 14.5017C0.475924 14.4737 0.447928 14.4177 0.447928 14.3897C0.447928 14.3617 0.419933 14.3337 0.419933 14.2777C0.391937 14.2217 0.391937 14.1657 0.363942 14.1097C0.363942 14.1097 0.363942 14.1097 0.363942 14.0817C0.335946 14.0258 0.335946 13.9698 0.307951 13.9138C0.307951 13.8858 0.279955 13.8578 0.279955 13.8298C0.279955 13.8018 0.25196 13.7458 0.25196 13.7178C0.25196 13.6898 0.25196 13.6618 0.223964 13.6338C0.223964 13.6058 0.195969 13.5498 0.195969 13.4658C0.195969 13.4658 0.195969 13.4658 0.195969 13.4378C0.195969 13.3819 0.167973 13.3259 0.167973 13.2699C0.167973 13.2419 0.167973 13.2419 0.167973 13.2139C0.167973 13.1579 0.139978 13.0739 0.139978 13.0179C0.139978 12.9339 0.111982 12.8779 0.111982 12.794C0.111982 12.71 0.0839866 12.654 0.0839866 12.57C0.0839866 12.486 0.055991 12.43 0.055991 12.346C0.0279955 12.1221 0 11.8981 0 11.6741C0 11.6181 0 11.5342 0 11.4782C0 11.3942 0 11.3382 0 11.2542C0 11.1702 0 11.1142 0 11.0302V11.0022C0 10.8623 0 10.7223 0 10.5543C0 10.4703 -2.08583e-09 10.3863 0.0279955 10.2744C0.0279955 10.2184 0.0279955 10.1904 0.0279955 10.1344C0.0279955 10.0504 0.0279955 9.9944 0.055991 9.91041C0.055991 9.85442 0.055991 9.77044 0.0839866 9.71445C0.0839866 8.87458 0.307951 8.00672 0.587906 7.19485C0.615901 7.11086 0.643897 7.02688 0.671893 6.94289C0.699888 6.8589 0.727884 6.77492 0.783875 6.69093C0.81187 6.66293 0.81187 6.60694 0.839866 6.57895C0.867861 6.55095 0.867861 6.49496 0.895857 6.46697C0.923852 6.43897 0.923852 6.41097 0.951848 6.38298C1.00784 6.271 1.06383 6.15901 1.11982 6.04703C1.14782 5.99104 1.20381 5.90706 1.2318 5.85106C1.2598 5.79507 1.31579 5.71109 1.34378 5.6551C1.37178 5.5991 1.42777 5.51512 1.45577 5.45913C1.45577 5.45913 1.45577 5.43113 1.48376 5.43113C1.53975 5.34715 1.59574 5.26316 1.62374 5.17917C2.40761 3.94737 3.41545 2.88354 4.59127 2.04367C4.67525 1.98768 4.75924 1.9037 4.87122 1.8477C4.95521 1.79171 5.06719 1.73572 5.15118 1.67973C5.20717 1.65174 5.29115 1.59574 5.34714 1.56775C5.40314 1.53975 5.48712 1.48376 5.54311 1.45577C5.5991 1.42777 5.6271 1.39978 5.68309 1.37178C5.73908 1.34378 5.76708 1.31579 5.82307 1.28779C5.90706 1.2318 6.01904 1.17581 6.10302 1.14782C6.13102 1.11982 6.18701 1.11982 6.21501 1.09183C6.29899 1.06383 6.38298 1.00784 6.46697 0.979843C6.63494 0.895857 6.80291 0.839866 6.97089 0.755879C7.02688 0.727884 7.05487 0.727884 7.11086 0.699888C7.72676 0.475924 8.39866 0.279955 9.07055 0.167973C9.12654 0.167973 9.18253 0.139978 9.23852 0.139978C9.3785 0.111982 9.49048 0.111982 9.63046 0.0839866C9.68645 0.0839866 9.74244 0.055991 9.79843 0.055991C9.91041 0.055991 10.0224 0.0279955 10.1344 0.0279955C10.2464 0.0279955 10.3583 0 10.4423 0C10.4983 0 10.5543 0 10.6103 0C10.7223 0 10.8063 0 10.9183 0C10.9742 0 11.0302 0 11.0862 0H11.1142C11.1702 0 11.2262 0 11.2822 0C11.3382 0 11.4222 0 11.4782 0H11.5062C11.5622 0 11.6461 0 11.7021 0C11.7581 0 11.8141 0 11.8701 0C11.9261 0 11.9541 0 12.0101 0C14.6697 0.195969 17.1053 1.37178 18.925 3.19149C18.981 3.24748 19.037 3.30347 19.0929 3.35946C19.1489 3.41545 19.2049 3.47144 19.2609 3.52744C19.2889 3.58343 19.3449 3.61142 19.3729 3.66741C19.4289 3.7514 19.5129 3.83539 19.5689 3.89138C19.5969 3.94737 19.6529 3.97536 19.6808 4.03135C19.7088 4.08735 19.7648 4.11534 19.7928 4.17133C19.8488 4.25532 19.9048 4.33931 19.9608 4.42329C19.9888 4.45129 20.0168 4.50728 20.0448 4.53527C20.0728 4.56327 20.0728 4.59127 20.1008 4.61926C20.1008 4.64726 20.1288 4.64726 20.1288 4.67525C20.1288 4.70325 20.1568 4.70325 20.1568 4.73124C20.2128 4.78723 20.2408 4.87122 20.2968 4.92721C20.2968 4.92721 20.2968 4.92721 20.2968 4.95521C20.2968 4.95521 20.2968 4.9832 20.3247 4.9832C20.3527 5.03919 20.3807 5.06719 20.4087 5.12318C20.4927 5.23516 20.5487 5.34714 20.6327 5.48712C20.6607 5.54311 20.6887 5.57111 20.7167 5.6271C20.7447 5.6551 20.7727 5.71109 20.7727 5.73908C20.8007 5.76708 20.8287 5.82307 20.8287 5.85106C20.8847 5.93505 20.9127 6.01904 20.9406 6.10302C20.9686 6.13102 20.9686 6.18701 20.9966 6.21501C21.0246 6.271 21.0526 6.29899 21.0526 6.35498C21.0806 6.41097 21.1086 6.46697 21.1366 6.52296C21.1926 6.63494 21.2486 6.77492 21.3046 6.8869C21.3326 6.94289 21.3326 6.97088 21.3606 7.02688C21.3606 7.05487 21.3886 7.08287 21.3886 7.11086C21.4166 7.19485 21.4446 7.27884 21.4726 7.36282C21.5006 7.44681 21.5286 7.5308 21.5566 7.61478C21.5566 7.67077 21.5845 7.69877 21.5845 7.75476C21.5845 7.81075 21.6125 7.83875 21.6125 7.89474C21.9765 8.84659 22.1445 9.91041 22.1445 11.0302Z" fill="#AE6CF8"/>
<path d="M12.0382 17.0213C12.0382 17.5532 11.6183 17.9732 11.0864 17.9732C10.5545 17.9732 10.1345 17.5532 10.1345 17.0213C10.1345 16.4894 10.5545 16.0695 11.0864 16.0695C11.6183 16.0695 12.0382 16.4894 12.0382 17.0213Z" fill="#E3D7FD"/>
<path d="M15.6496 9.3505C15.6496 11.3382 14.3058 13.1579 12.4021 13.7178C12.1781 13.7738 12.0381 13.9698 12.0381 14.1937V14.4177C12.0381 14.9496 11.6182 15.3695 11.0863 15.3695C10.5544 15.3695 10.1345 14.9496 10.1345 14.4177V14.1937C10.1345 13.1299 10.8343 12.206 11.8702 11.8981C12.99 11.5621 13.7739 10.5263 13.7739 9.3505C13.7739 8.65061 13.4939 8.00672 12.99 7.4748C12.4861 6.97088 11.8142 6.69093 11.1143 6.69093C9.65853 6.69093 8.45472 7.89474 8.45472 9.3505C8.45472 9.88242 8.03479 10.3024 7.50287 10.3024C6.97096 10.3024 6.55103 9.88242 6.55103 9.3505C6.55103 6.83091 8.5947 4.78723 11.1143 4.78723C12.3181 4.78723 13.4659 5.26316 14.3338 6.13102C15.2016 6.99888 15.6496 8.17469 15.6496 9.3505Z" fill="#E3D7FD"/>
</svg>
