<svg width="26" height="25" viewBox="0 0 26 25" fill="none" xmlns="http://www.w3.org/2000/svg">
<path d="M18.4616 12.5148C18.4616 15.7396 15.7693 18.4615 12.5149 18.4615C9.17166 18.4615 6.56812 15.7692 6.56812 12.5148C6.56812 9.26033 9.26042 6.56802 12.5149 6.56802C15.7693 6.56802 18.4616 9.26033 18.4616 12.5148Z" fill="#E3D7FD"/>
<path d="M22.8698 10.355H20.9763C20.8876 10.355 20.8876 10.355 20.7988 10.355C20.6213 9.55621 20.2663 8.81657 19.9112 8.19527L20 8.10651L21.3609 6.74556C22.1598 5.94675 22.1598 4.49704 21.3609 3.69823C20.5621 2.89941 19.1124 2.89941 18.3136 3.69823L16.8639 5.14793C16.2426 4.7929 15.503 4.43787 14.7041 4.23077C14.7041 4.14201 14.7041 4.14201 14.7041 4.05325V2.15976C14.7041 0.976331 13.7278 0 12.5444 0C11.3609 0 10.3846 1.00592 10.3846 2.15976V4.05325C10.3846 4.14201 10.3846 4.14201 10.3846 4.23077C9.5858 4.40828 8.84615 4.76331 8.22485 5.14793L6.77515 3.69823C5.97633 2.89941 4.52663 2.89941 3.72781 3.69823C2.92899 4.49704 2.92899 5.94675 3.72781 6.74556L5.17752 8.19527C4.82249 8.81657 4.46746 9.55621 4.28994 10.355C4.20118 10.355 4.20118 10.355 4.11243 10.355H2.15976C0.976331 10.355 0 11.3609 0 12.5148C0 13.6982 1.00592 14.6746 2.15976 14.6746H4.05325C4.14201 14.6746 4.14201 14.6746 4.23077 14.6746C4.40828 15.4734 4.76331 16.213 5.11834 16.8343L5.02959 16.9231L3.66864 18.284C2.86982 19.0828 2.86982 20.5325 3.66864 21.3314C4.11243 21.7751 4.64497 21.9527 5.2071 21.9527C5.73965 21.9527 6.30177 21.7751 6.74556 21.3314L8.10651 19.9704L8.19527 19.8817C8.81657 20.2367 9.55621 20.5917 10.355 20.7692C10.355 20.858 10.355 20.858 10.355 20.9467V22.8402C10.355 24.0237 11.3314 25 12.5148 25C13.6982 25 14.6746 24.0237 14.6746 22.8402V20.9467C14.6746 20.858 14.6746 20.858 14.6746 20.7692C15.4734 20.5917 16.213 20.2367 16.8343 19.8817L16.9231 19.9704L18.284 21.3314C18.7278 21.7751 19.2899 21.9527 19.8225 21.9527C20.355 21.9527 20.8876 21.7751 21.3609 21.3314C22.1598 20.5325 22.1598 19.0828 21.3609 18.284L20 16.9231L19.9112 16.8343C20.2663 16.213 20.6213 15.4734 20.7988 14.6746C20.8876 14.6746 20.8876 14.6746 20.9763 14.6746H22.8698C24.0533 14.6746 25.0296 13.6982 25.0296 12.5148C25.0296 11.3314 24.0237 10.355 22.8698 10.355ZM12.5148 17.5148C9.70414 17.5148 7.51479 15.2367 7.51479 12.5148C7.51479 9.7929 9.7929 7.51479 12.5148 7.51479C15.2367 7.51479 17.5148 9.7929 17.5148 12.5148C17.5148 15.2367 15.2367 17.5148 12.5148 17.5148Z" fill="#AE6CF8"/>
<path d="M12.5149 14.9408C13.8548 14.9408 14.9409 13.8546 14.9409 12.5148C14.9409 11.1749 13.8548 10.0887 12.5149 10.0887C11.175 10.0887 10.0889 11.1749 10.0889 12.5148C10.0889 13.8546 11.175 14.9408 12.5149 14.9408Z" fill="#AE6CF8"/>
</svg>
