<svg width="46" height="52" viewBox="0 0 46 52" fill="none" xmlns="http://www.w3.org/2000/svg">
<path d="M45.9062 22.8661C45.9062 33.3705 38.8839 42.192 29.308 44.9777C28.8438 45.0938 28.4375 45.2098 27.9732 45.3259V49.3304C27.9732 50.317 27.3929 51.2455 26.4643 51.6518C26.1741 51.7679 25.8259 51.8259 25.5357 51.8259C24.8973 51.8259 24.2589 51.5938 23.7946 51.0714L18.1071 45.3839C17.7009 45.3259 17.3527 45.2098 16.9464 45.0938C11.433 43.5848 6.73214 40.1607 3.71429 35.5179C3.65625 35.4598 3.59821 35.4018 3.59821 35.2857C3.54018 35.1696 3.48214 35.0536 3.36607 34.9375C3.30804 34.8214 3.19196 34.7054 3.13393 34.5313C3.07589 34.4152 3.01786 34.3571 2.95982 34.2411C2.78571 34.183 2.72768 34.125 2.72768 34.0089C2.66964 33.8929 2.61161 33.8348 2.55357 33.7188C2.49554 33.6607 2.49554 33.6027 2.4375 33.5446C2.37946 33.4866 2.37946 33.4286 2.32143 33.3705C2.26339 33.1964 2.14732 33.0223 2.08929 32.8482C2.08929 32.8482 2.08929 32.7902 2.03125 32.7902C1.91518 32.6161 1.85714 32.442 1.79911 32.2679C1.79911 32.2098 1.74107 32.1518 1.74107 32.0938C1.68304 32.0357 1.68304 31.9196 1.625 31.8616C1.56696 31.7455 1.56696 31.6295 1.50893 31.5714C1.45089 31.4554 1.39286 31.3393 1.39286 31.2232C1.33482 31.1071 1.27679 30.9911 1.27679 30.875C1.21875 30.7009 1.16071 30.5848 1.10268 30.4107C1.04464 30.2946 1.04464 30.1786 0.986607 30.0625C0.986607 30.0045 0.928571 29.8884 0.928571 29.8304C0.928571 29.7723 0.870536 29.7143 0.870536 29.5982C0.8125 29.4821 0.8125 29.3661 0.754464 29.25C0.754464 29.25 0.754464 29.25 0.754464 29.192C0.696429 29.0759 0.696428 28.9598 0.638393 28.8438C0.638393 28.7857 0.580357 28.7277 0.580357 28.6696C0.580357 28.6116 0.522321 28.4955 0.522321 28.4375C0.522321 28.3795 0.522321 28.3214 0.464286 28.2634C0.464286 28.2054 0.40625 28.0893 0.40625 27.9152C0.40625 27.9152 0.40625 27.9152 0.40625 27.8571C0.40625 27.7411 0.348214 27.625 0.348214 27.5089C0.348214 27.4509 0.348214 27.4509 0.348214 27.3929C0.348214 27.2768 0.290179 27.1027 0.290179 26.9866C0.290179 26.8125 0.232143 26.6964 0.232143 26.5223C0.232143 26.3482 0.174107 26.2321 0.174107 26.058C0.174107 25.8839 0.116071 25.7679 0.116071 25.5938C0.0580357 25.1295 0 24.6652 0 24.2009C0 24.0848 0 23.9107 0 23.7946C0 23.6205 0 23.5045 0 23.3304C0 23.1563 0 23.0402 0 22.8661V22.808C0 22.5179 0 22.2277 0 21.8795C0 21.7054 -4.324e-09 21.5313 0.0580357 21.2991C0.0580357 21.183 0.0580357 21.125 0.0580357 21.0089C0.0580357 20.8348 0.0580357 20.7188 0.116071 20.5446C0.116071 20.4286 0.116071 20.2545 0.174107 20.1384C0.174107 18.3973 0.638393 16.5982 1.21875 14.9152C1.27679 14.7411 1.33482 14.567 1.39286 14.3929C1.45089 14.2188 1.50893 14.0446 1.625 13.8705C1.68304 13.8125 1.68304 13.6964 1.74107 13.6384C1.79911 13.5804 1.79911 13.4643 1.85714 13.4063C1.91518 13.3482 1.91518 13.2902 1.97321 13.2321C2.08929 13 2.20536 12.7679 2.32143 12.5357C2.37946 12.4196 2.49554 12.2455 2.55357 12.1295C2.61161 12.0134 2.72768 11.8393 2.78571 11.7232C2.84375 11.6071 2.95982 11.433 3.01786 11.317C3.01786 11.317 3.01786 11.2589 3.07589 11.2589C3.19196 11.0848 3.30804 10.9107 3.36607 10.7366C4.99107 8.18304 7.08036 5.97768 9.51786 4.23661C9.69197 4.12054 9.86607 3.94643 10.0982 3.83036C10.2723 3.71429 10.5045 3.59821 10.6786 3.48214C10.7946 3.42411 10.9688 3.30804 11.0848 3.25C11.2009 3.19196 11.375 3.07589 11.4911 3.01786C11.6071 2.95982 11.6652 2.90179 11.7813 2.84375C11.8973 2.78571 11.9554 2.72768 12.0714 2.66964C12.2455 2.55357 12.4777 2.4375 12.6518 2.37946C12.7098 2.32143 12.8259 2.32143 12.8839 2.26339C13.058 2.20536 13.2321 2.08929 13.4062 2.03125C13.7545 1.85714 14.1027 1.74107 14.4509 1.56696C14.567 1.50893 14.625 1.50893 14.7411 1.45089C16.0179 0.986607 17.4107 0.580357 18.8036 0.348214C18.9196 0.348214 19.0357 0.290179 19.1518 0.290179C19.442 0.232143 19.6741 0.232143 19.9643 0.174107C20.0804 0.174107 20.1964 0.116071 20.3125 0.116071C20.5446 0.116071 20.7768 0.0580357 21.0089 0.0580357C21.2411 0.0580357 21.4732 0 21.6473 0C21.7634 0 21.8795 0 21.9955 0C22.2277 0 22.4018 0 22.6339 0C22.75 0 22.8661 0 22.9821 0H23.0402C23.1562 0 23.2723 0 23.3884 0C23.5045 0 23.6786 0 23.7946 0H23.8527C23.9688 0 24.1429 0 24.2589 0C24.375 0 24.4911 0 24.6071 0C24.7232 0 24.7812 0 24.8973 0C30.4107 0.40625 35.4598 2.84375 39.2321 6.61607C39.3482 6.73214 39.4643 6.84822 39.5804 6.96429C39.6964 7.08036 39.8125 7.19643 39.9286 7.3125C39.9866 7.42857 40.1027 7.48661 40.1607 7.60268C40.2768 7.77679 40.4509 7.95089 40.567 8.06697C40.625 8.18304 40.7411 8.24107 40.7991 8.35714C40.8571 8.47322 40.9732 8.53125 41.0312 8.64732C41.1473 8.82143 41.2634 8.99554 41.3795 9.16964C41.4375 9.22768 41.4955 9.34375 41.5536 9.40179C41.6116 9.45982 41.6116 9.51786 41.6696 9.57589C41.6696 9.63393 41.7277 9.63393 41.7277 9.69197C41.7277 9.75 41.7857 9.75 41.7857 9.80804C41.9018 9.92411 41.9598 10.0982 42.0759 10.2143C42.0759 10.2143 42.0759 10.2143 42.0759 10.2723C42.0759 10.2723 42.0759 10.3304 42.1339 10.3304C42.192 10.4464 42.25 10.5045 42.308 10.6205C42.4821 10.8527 42.5982 11.0848 42.7723 11.375C42.8304 11.4911 42.8884 11.5491 42.9464 11.6652C43.0045 11.7232 43.0625 11.8393 43.0625 11.8973C43.1205 11.9554 43.1786 12.0714 43.1786 12.1295C43.2946 12.3036 43.3527 12.4777 43.4107 12.6518C43.4687 12.7098 43.4688 12.8259 43.5268 12.8839C43.5848 13 43.6429 13.058 43.6429 13.1741C43.7009 13.2902 43.7589 13.4063 43.817 13.5223C43.933 13.7545 44.0491 14.0446 44.1652 14.2768C44.2232 14.3929 44.2232 14.4509 44.2812 14.567C44.2812 14.625 44.3393 14.683 44.3393 14.7411C44.3973 14.9152 44.4554 15.0893 44.5134 15.2634C44.5714 15.4375 44.6295 15.6116 44.6875 15.7857C44.6875 15.9018 44.7455 15.9598 44.7455 16.0759C44.7455 16.192 44.8036 16.25 44.8036 16.3661C45.558 18.3393 45.9062 20.5446 45.9062 22.8661Z" fill="#E1DEE9"/>
<path d="M24.9554 35.2857C24.9554 36.3884 24.0849 37.2589 22.9822 37.2589C21.8795 37.2589 21.009 36.3884 21.009 35.2857C21.009 34.183 21.8795 33.3125 22.9822 33.3125C24.0849 33.3125 24.9554 34.183 24.9554 35.2857Z" fill="#F1EBFE"/>
<path d="M32.442 19.384C32.442 23.5045 29.6563 27.2768 25.7098 28.4375C25.2456 28.5536 24.9554 28.9599 24.9554 29.4241V29.8884C24.9554 30.9911 24.0848 31.8616 22.9822 31.8616C21.8795 31.8616 21.009 30.9911 21.009 29.8884V29.4241C21.009 27.2188 22.4598 25.3036 24.6072 24.6652C26.9286 23.9688 28.5536 21.8215 28.5536 19.384C28.5536 17.9331 27.9732 16.5982 26.9286 15.4956C25.884 14.4509 24.4911 13.8706 23.0402 13.8706C20.0223 13.8706 17.5268 16.3661 17.5268 19.384C17.5268 20.4866 16.6563 21.3572 15.5536 21.3572C14.4509 21.3572 13.5804 20.4866 13.5804 19.384C13.5804 14.1607 17.817 9.92413 23.0402 9.92413C25.5357 9.92413 27.9152 10.9107 29.7143 12.7098C31.5134 14.509 32.442 16.9465 32.442 19.384Z" fill="#F1EBFE"/>
</svg>
