<svg width="53" height="52" viewBox="0 0 53 52" fill="none" xmlns="http://www.w3.org/2000/svg">
<path d="M38.4 26.0308C38.4 32.7385 32.8 38.4 26.0307 38.4C19.0769 38.4 13.6615 32.8 13.6615 26.0308C13.6615 19.2616 19.2615 13.6616 26.0307 13.6616C32.8 13.6616 38.4 19.2616 38.4 26.0308Z" fill="#F1EBFE"/>
<path d="M47.5692 21.5385H43.6308C43.4462 21.5385 43.4462 21.5385 43.2615 21.5385C42.8923 19.8769 42.1539 18.3385 41.4154 17.0462L41.6 16.8615L44.4308 14.0308C46.0923 12.3692 46.0923 9.35385 44.4308 7.69231C42.7692 6.03077 39.7538 6.03077 38.0923 7.69231L35.0769 10.7077C33.7846 9.96923 32.2462 9.23077 30.5846 8.8C30.5846 8.61539 30.5846 8.61539 30.5846 8.43077V4.49231C30.5846 2.03077 28.5538 0 26.0923 0C23.6308 0 21.6 2.09231 21.6 4.49231V8.43077C21.6 8.61539 21.6 8.61539 21.6 8.8C19.9385 9.16923 18.4 9.90769 17.1077 10.7077L14.0923 7.69231C12.4308 6.03077 9.41539 6.03077 7.75385 7.69231C6.09231 9.35385 6.09231 12.3692 7.75385 14.0308L10.7692 17.0462C10.0308 18.3385 9.29231 19.8769 8.92308 21.5385C8.73846 21.5385 8.73846 21.5385 8.55385 21.5385H4.49231C2.03077 21.5385 0 23.6308 0 26.0308C0 28.4923 2.09231 30.5231 4.49231 30.5231H8.43077C8.61539 30.5231 8.61539 30.5231 8.8 30.5231C9.16923 32.1846 9.90769 33.7231 10.6462 35.0154L10.4615 35.2L7.63077 38.0308C5.96923 39.6923 5.96923 42.7077 7.63077 44.3692C8.55385 45.2923 9.66154 45.6615 10.8308 45.6615C11.9385 45.6615 13.1077 45.2923 14.0308 44.3692L16.8615 41.5385L17.0462 41.3538C18.3385 42.0923 19.8769 42.8308 21.5385 43.2C21.5385 43.3846 21.5385 43.3846 21.5385 43.5692V47.5077C21.5385 49.9692 23.5692 52 26.0308 52C28.4923 52 30.5231 49.9692 30.5231 47.5077V43.5692C30.5231 43.3846 30.5231 43.3846 30.5231 43.2C32.1846 42.8308 33.7231 42.0923 35.0154 41.3538L35.2 41.5385L38.0308 44.3692C38.9538 45.2923 40.1231 45.6615 41.2308 45.6615C42.3385 45.6615 43.4462 45.2923 44.4308 44.3692C46.0923 42.7077 46.0923 39.6923 44.4308 38.0308L41.6 35.2L41.4154 35.0154C42.1539 33.7231 42.8923 32.1846 43.2615 30.5231C43.4462 30.5231 43.4462 30.5231 43.6308 30.5231H47.5692C50.0308 30.5231 52.0615 28.4923 52.0615 26.0308C52.0615 23.5692 49.9692 21.5385 47.5692 21.5385ZM26.0308 36.4308C20.1846 36.4308 15.6308 31.6923 15.6308 26.0308C15.6308 20.3692 20.3692 15.6308 26.0308 15.6308C31.6923 15.6308 36.4308 20.3692 36.4308 26.0308C36.4308 31.6923 31.6923 36.4308 26.0308 36.4308Z" fill="#E1DEE9"/>
<path d="M26.0308 31.0769C28.8177 31.0769 31.0769 28.8177 31.0769 26.0308C31.0769 23.2439 28.8177 20.9846 26.0308 20.9846C23.2439 20.9846 20.9846 23.2439 20.9846 26.0308C20.9846 28.8177 23.2439 31.0769 26.0308 31.0769Z" fill="#E1DEE9"/>
</svg>
