<svg width="23" height="25" viewBox="0 0 23 25" fill="none" xmlns="http://www.w3.org/2000/svg">
<path d="M11.9066 2.45534C11.9066 2.90176 11.5439 3.26449 11.0975 3.26449C10.6511 3.26449 10.2883 2.90176 10.2883 2.45534C10.2883 2.00891 10.6511 1.64618 11.0975 1.64618C11.5439 1.61828 11.9066 2.00891 11.9066 2.45534Z" fill="#E3D7FD"/>
<path d="M21.3931 16.9643L21.1978 16.7969L20.9746 16.6016C20.6956 16.4062 20.3887 16.2667 20.0539 16.183V12.221C20.0539 8.03571 17.1521 4.52009 13.2737 3.54353C13.4411 3.2087 13.5527 2.84598 13.5527 2.45536C13.5527 1.11607 12.4646 0 11.0974 0C9.75809 0 8.64202 1.08817 8.64202 2.45536C8.64202 2.84598 8.75363 3.2087 8.92104 3.54353C5.01479 4.52009 2.14091 8.03571 2.14091 12.221V16.2388C1.75028 16.3225 1.38756 16.49 1.10854 16.7411L0.941129 16.8806C0.215683 17.5223 -0.174942 18.5547 0.0761741 19.615C0.32729 20.6752 1.22015 21.5123 2.28042 21.7076C2.47573 21.7355 2.69894 21.7634 2.89425 21.7355C2.92216 21.7355 2.95006 21.7355 2.97796 21.7355H19.2447C19.2726 21.7355 19.3005 21.7355 19.3284 21.7355C20.9188 21.7913 22.2023 20.5357 22.2023 18.9453C22.2302 18.1641 21.8954 17.4665 21.3931 16.9643ZM10.2882 2.45536C10.2882 2.00893 10.6509 1.64621 11.0974 1.64621C11.5438 1.64621 11.9065 2.00893 11.9065 2.45536C11.9065 2.90179 11.5438 3.26451 11.0974 3.26451C10.6509 3.26451 10.2882 2.90179 10.2882 2.45536Z" fill="#AE6CF8"/>
<path d="M15.0873 21.7355C14.6967 23.6049 13.0784 25 11.0974 25C9.11635 25 7.47015 23.6049 7.10742 21.7355H15.0873Z" fill="#E3D7FD"/>
</svg>
